Plot:
80 minutes to live or die. Alex got injected with a high tech poison by his creditor and put on a time.

Genre:Action | Thriller
Language:English  http://www.imdb.com/title/tt1119178/
Source:720p.BluRay.x264-FLHD
 
http://img8.imageshack.us/img8/5503/80minutes2008720pbrriph.jpg 
http://img714.imageshack.us/img714/5503/80minutes2008720pbrriph.jpg 
http://img258.imageshack.us/img258/5503/80minutes2008720pbrriph.jpg
 
http://www.youtube.com/watch?v=vvhPJhHaWXs&feature=player_embedded

General
Complete name :80.Minutes.2008.720p.BRRip.H264.Feel-Free
Format : MPEG-4
Format profile : Base Media / Version 2
Codec ID : mp42
File size : 1.17 GiB
Duration : 1h 28mn
Overall bit rate : 1 886 Kbps
Video #1
Codec ID : avc1
Codec ID/Info : Advanced Video Coding
Duration : 1h 28mn
Bit rate mode : Variable
Bit rate : 1 308 Kbps
Width : 1 280 pixels
Height : 544 pixels
Display aspect ratio : 2.35:1
Frame rate mode : Constant
Frame rate : 23.976 fps
Resolution : 24 bits
Colorimetry : 4:2:0
Scan type : Progressive
Bits/(Pixel*Frame) : 0.078
Stream size : 830 MiB (69%)
Audio #2
ID : 2
Format : AAC
Format/Info : Advanced Audio Codec
Format version : Version 4
Format profile : LC
Format settings, SBR : No
Codec ID : 40
Duration : 1h 28mn
Bit rate mode : Constant
Bit rate : 576 Kbps
Channel(s) : 6 channels
Channel positions : Front: L C R, Rear: L R, LFE
Sampling rate : 48.0 KHz
Resolution : 16 bits
Stream size : 364 MiB (30%)